{
	"asset":{
		"generator":"Khronos glTF Blender I/O v3.6.27",
		"version":"2.0"
	},
	"extensionsUsed":[
		"KHR_materials_unlit"
	],
	"scene":2,
	"scenes":[
		{
			"name":"efectos"
		},
		{
			"name":"escena principal"
		},
		{
			"name":"penguin",
			"nodes":[
				0
			]
		}
	],
	"nodes":[
		{
			"mesh":0,
			"name":"rargos pechou",
			"scale":[
				0.08628278225660324,
				0.0838528424501419,
				0.08628278225660324
			],
			"translation":[
				0,
				-0.014647722244262695,
				0
			]
		}
	],
	"materials":[
		{
			"doubleSided":true,
			"extensions":{
				"KHR_materials_unlit":{}
			},
			"name":"carlos",
			"pbrMetallicRoughness":{
				"baseColorTexture":{
					"index":0,
					"texCoord":0
				},
				"metallicFactor":0,
				"roughnessFactor":0.9
			}
		},
		{
			"doubleSided":true,
			"name":"zapato carlos",
			"pbrMetallicRoughness":{
				"baseColorFactor":[
					0.800000011920929,
					0.800000011920929,
					0.800000011920929,
					0
				],
				"metallicFactor":0,
				"roughnessFactor":0.5
			}
		},
		{
			"doubleSided":true,
			"extensions":{
				"KHR_materials_unlit":{}
			},
			"name":"palo madera",
			"pbrMetallicRoughness":{
				"baseColorFactor":[
					0.016225,
					0.009246,
					0.005665,
					1
				],
				"metallicFactor":0,
				"roughnessFactor":0.9
			}
		}
	],
	"meshes":[
		{
			"name":"Cube.001",
			"primitives":[
				{
					"attributes":{
						"POSITION":0,
						"NORMAL":1,
						"TEXCOORD_0":2
					},
					"indices":3,
					"material":0
				},
				{
					"attributes":{
						"POSITION":4,
						"NORMAL":5,
						"TEXCOORD_0":6
					},
					"indices":7,
					"material":1
				},
				{
					"attributes":{
						"POSITION":8,
						"NORMAL":9,
						"TEXCOORD_0":10
					},
					"indices":11,
					"material":2
				}
			]
		}
	],
	"textures":[
		{
			"sampler":0,
			"source":0
		}
	],
	"images":[
		{
			"mimeType":"image/png",
			"name":"carlos supremo",
			"uri":"carlos%20supremo.png"
		}
	],
	"accessors":[
		{
			"bufferView":0,
			"componentType":5126,
			"count":1920,
			"max":[
				1.8842175006866455,
				7.990318775177002,
				1.5591225624084473
			],
			"min":[
				-1.8842175006866455,
				-5.369357109069824,
				-1.5591225624084473
			],
			"type":"VEC3"
		},
		{
			"bufferView":1,
			"componentType":5126,
			"count":1920,
			"type":"VEC3"
		},
		{
			"bufferView":2,
			"componentType":5126,
			"count":1920,
			"type":"VEC2"
		},
		{
			"bufferView":3,
			"componentType":5123,
			"count":2772,
			"type":"SCALAR"
		},
		{
			"bufferView":4,
			"componentType":5126,
			"count":68,
			"max":[
				2.2832565307617188,
				-4.706506729125977,
				1.0785157680511475
			],
			"min":[
				-2.2832565307617188,
				-5.468987941741943,
				-0.3705046474933624
			],
			"type":"VEC3"
		},
		{
			"bufferView":5,
			"componentType":5126,
			"count":68,
			"type":"VEC3"
		},
		{
			"bufferView":6,
			"componentType":5126,
			"count":68,
			"type":"VEC2"
		},
		{
			"bufferView":7,
			"componentType":5123,
			"count":84,
			"type":"SCALAR"
		},
		{
			"bufferView":8,
			"componentType":5126,
			"count":1172,
			"max":[
				2.1112821102142334,
				8.485431671142578,
				1.491913080215454
			],
			"min":[
				-2.1112821102142334,
				3.6328091621398926,
				-2.1468124389648438
			],
			"type":"VEC3"
		},
		{
			"bufferView":9,
			"componentType":5126,
			"count":1172,
			"type":"VEC3"
		},
		{
			"bufferView":10,
			"componentType":5126,
			"count":1172,
			"type":"VEC2"
		},
		{
			"bufferView":11,
			"componentType":5123,
			"count":1680,
			"type":"SCALAR"
		}
	],
	"bufferViews":[
		{
			"buffer":0,
			"byteLength":23040,
			"byteOffset":0,
			"target":34962
		},
		{
			"buffer":0,
			"byteLength":23040,
			"byteOffset":23040,
			"target":34962
		},
		{
			"buffer":0,
			"byteLength":15360,
			"byteOffset":46080,
			"target":34962
		},
		{
			"buffer":0,
			"byteLength":5544,
			"byteOffset":61440,
			"target":34963
		},
		{
			"buffer":0,
			"byteLength":816,
			"byteOffset":66984,
			"target":34962
		},
		{
			"buffer":0,
			"byteLength":816,
			"byteOffset":67800,
			"target":34962
		},
		{
			"buffer":0,
			"byteLength":544,
			"byteOffset":68616,
			"target":34962
		},
		{
			"buffer":0,
			"byteLength":168,
			"byteOffset":69160,
			"target":34963
		},
		{
			"buffer":0,
			"byteLength":14064,
			"byteOffset":69328,
			"target":34962
		},
		{
			"buffer":0,
			"byteLength":14064,
			"byteOffset":83392,
			"target":34962
		},
		{
			"buffer":0,
			"byteLength":9376,
			"byteOffset":97456,
			"target":34962
		},
		{
			"buffer":0,
			"byteLength":3360,
			"byteOffset":106832,
			"target":34963
		}
	],
	"samplers":[
		{
			"magFilter":9729,
			"minFilter":9987
		}
	],
	"buffers":[
		{
			"byteLength":110192,
			"uri":"carlos2.bin"
		}
	]
}
